HIERARCHY
ROOT pelvis
{
  OFFSET 0 100 0
  CHANNELS 6 Xposition Yposition Zposition Zrotation Xrotation Yrotation
  JOINT pelvis_right_femur
  {
    OFFSET -10.78128 -3.44521 -0.5502486
    CHANNELS 3 Zrotation Xrotation Yrotation
    JOINT right_femur_tibia
    {
      OFFSET -0.8047443 -44.0398 -0.1307829
      CHANNELS 3 Zrotation Xrotation Yrotation
      JOINT right_tibia_foot
      {
        OFFSET 3.006224 -47.83518 -5
        CHANNELS 3 Zrotation Xrotation Yrotation
        End Site
        {
          OFFSET 0 -5 15
        }
      }
    }
  }
  JOINT pelvis_left_femur
  {
    OFFSET 10.78128 -3.44521 -0.5502486
    CHANNELS 3 Zrotation Xrotation Yrotation
    JOINT left_femur_tibia
    {
      OFFSET 0.8047443 -44.0398 -0.1307829
      CHANNELS 3 Zrotation Xrotation Yrotation
      JOINT left_tibia_foot
      {
        OFFSET -4.370144 -48.10324 -4.275266
        CHANNELS 3 Zrotation Xrotation Yrotation
        End Site
        {
          OFFSET 0 -5 15
        }
      }
    }
  }
  JOINT pelvis_spine1
  {
    OFFSET 0 6.468898 -3.129235
    CHANNELS 3 Zrotation Xrotation Yrotation
    JOINT spine1
    {
      OFFSET 0 23.15396 4.99043
      CHANNELS 3 Zrotation Xrotation Yrotation
      JOINT spine2
      {
        OFFSET 0 20.79997 -5.064912
        CHANNELS 3 Zrotation Xrotation Yrotation
        JOINT neck
        {
          OFFSET 0 14.38658 9.616178
          CHANNELS 3 Zrotation Xrotation Yrotation
          End Site
          {
            OFFSET 0 20 0
          }
        }
      }
      JOINT right_manubrium
      {
        OFFSET -5.722621 16.35077 3.967754
        CHANNELS 3 Zrotation Xrotation Yrotation
        JOINT right_clavicle
        {
          OFFSET -13.16364 1.694482 -4.693211
          CHANNELS 3 Zrotation Xrotation Yrotation
          JOINT right_humerus
          {
            OFFSET -28.5034 -0.3100689 -2.792744
            CHANNELS 3 Zrotation Xrotation Yrotation
            JOINT right_radius
            {
              OFFSET -25.15693 0.02248979 -1.271978
              CHANNELS 3 Zrotation Xrotation Yrotation
              End Site
              {
                OFFSET -15 0 0
              }
            }
          }
        }
      }
      JOINT left_manubrium
      {
        OFFSET 5.722621 16.35077 3.967754
        CHANNELS 3 Zrotation Xrotation Yrotation
        JOINT left_clavicle
        {
          OFFSET 13.16364 1.694482 -4.693211
          CHANNELS 3 Zrotation Xrotation Yrotation
          JOINT left_humerus
          {
            OFFSET 29.39168 -1.063119 -2.237045
            CHANNELS 3 Zrotation Xrotation Yrotation
            JOINT left_radius
            {
              OFFSET 24.59957 -0.9528479 0.9047498
              CHANNELS 3 Zrotation Xrotation Yrotation
              End Site
              {
                OFFSET 15 -0 -0
              }
            }
          }
        }
      }
    }
  }
}
MOTION
Frames: 11
Frame Time: 0.0416666666667
1327.862 105.9975 2957.382 8.377793 -8.716362 32.63873 -0.9747226 -11.85959 2.507693 -0 36.32383 -0 7.513596 -7.750384 -10.56093 -5.358958 7.957475 -7.592295 -0 21.50287 -0 -8.775085 -16.61116 14.02343 -2.736227 1.876819 3.426894 -0.916617 8.42083 -4.839611 3.365125 23.61241 5.026364 0.7411017 -10.92832 8.904524 0.2520457 -13.2987 8.576009 88.22726 19.82282 -14.09911 -0 0 15.06899 -22.99963 13.97317 9.957319 6.439511 -17.23308 -4.733314 -83.03145 21.13866 5.042294 0 0 -16.48524 0.7711536 7.044302 10.39506
1331.432 105.3437 2962.868 8.707536 -8.920395 33.39908 -1.010142 -14.50073 2.048578 -0 32.07044 -0 6.690748 -8.327262 -11.03908 -5.263932 11.0156 -7.558272 -0 21.57387 -0 -9.05259 -17.40682 13.88301 -2.751416 2.056333 2.88904 -0.8027847 8.078189 -4.976435 3.579721 23.93274 4.781596 0.8036908 -10.29529 8.823979 -0.2753642 -12.32542 8.295275 89.12571 19.28953 -15.06808 -0 0 13.77038 -22.04551 13.25718 8.837838 7.008395 -17.88721 -4.870174 -82.05241 20.62039 2.388549 0 0 -17.46032 1.886331 7.514036 8.577177
1335.016 104.5594 2968.572 8.955576 -9.131189 34.01391 -0.863195 -16.34846 1.857008 -0 28.35866 -0 5.912968 -8.694368 -11.47641 -5.080016 13.48946 -7.398174 -0 22.54114 -0 -9.219252 -17.8399 13.93136 -2.727881 2.140693 2.473005 -0.6942911 7.829239 -5.065982 3.833131 24.19187 4.458401 0.8338 -9.800163 8.727562 -0.7553984 -11.47227 8.097461 89.93423 18.74517 -15.84679 -0 0 12.56217 -21.14728 12.60802 7.772117 7.437115 -18.4267 -4.923151 -81.28861 20.00534 0.1791628 0 0 -18.139 3.067364 7.930445 6.756302
1338.637 103.7804 2974.529 9.119961 -9.387504 34.46116 -0.4825544 -17.26941 1.985833 -0 25.54892 -0 5.216609 -8.944306 -11.88559 -4.822165 15.34349 -7.144978 -0 24.51965 -0 -9.232598 -17.80652 14.20913 -2.647196 2.120076 2.169787 -0.577408 7.702701 -5.118754 4.10277 24.3942 4.068622 0.8055775 -9.456434 8.623595 -1.136927 -10.77528 7.999581 90.61869 18.2363 -16.40967 -0 0 11.45036 -20.31631 12.09399 6.832876 7.670686 -18.79375 -4.895873 -80.77128 19.35437 -1.498105 0 0 -18.44841 4.216593 8.27039 5.052645
1342.295 103.1486 2980.733 9.198215 -9.701089 34.7157 0.1361139 -17.1379 2.442718 -0 23.78987 -0 4.63071 -9.179005 -12.24352 -4.510305 16.47505 -6.856718 -0 27.544 -0 -9.088029 -17.24677 14.73427 -2.500973 1.992738 1.992698 -0.44276 7.721142 -5.136996 4.358419 24.54126 3.646836 0.718042 -9.286388 8.516525 -1.363379 -10.28765 8.016522 91.11567 17.82639 -16.73424 -0 0 10.48293 -19.58121 11.7802 6.108468 7.676741 -18.94923 -4.797321 -80.55128 18.77507 -2.514854 0 0 -18.35288 5.185443 8.532683 3.657706
1345.973 102.7838 2987.131 9.190144 -10.05303 34.75257 0.9296862 -15.89567 3.167653 -0 22.98121 -0 4.188985 -9.456774 -12.48908 -4.170803 16.70529 -6.595355 -0 31.5369 -0 -8.837632 -16.17899 15.47759 -2.293803 1.777692 1.979516 -0.2943947 7.900265 -5.110098 4.567995 24.62727 3.250715 0.599235 -9.312348 8.409354 -1.382866 -10.07245 8.156423 91.3375 17.57794 -16.79928 -0 0 9.761326 -19.01145 11.73056 5.697891 7.462248 -18.88784 -4.642593 -80.68817 18.39051 -2.726069 0 0 -17.87087 5.803432 8.730201 2.801726
1349.641 102.7533 2993.625 9.100114 -10.39519 34.55531 1.7753 -13.6202 4.039823 -0 22.77817 -0 3.936627 -9.752495 -12.53143 -3.833128 15.81034 -6.394228 -0 36.25862 -0 -8.583076 -14.72057 16.35447 -2.042711 1.52065 2.182971 -0.1556755 8.24908 -5.017507 4.702967 24.63393 2.954256 0.5034281 -9.542381 8.304411 -1.161814 -10.1898 8.417235 91.18879 17.53379 -16.58879 -0 0 9.435183 -18.72813 12.00112 5.692341 7.084175 -18.654 -4.455287 -81.23082 18.28262 -2.018056 0 0 -17.09875 5.931347 8.864582 2.684572
1353.264 103.0495 3000.09 8.934052 -10.65874 34.12507 2.53505 -10.55101 4.921504 -0 22.69048 -0 3.922842 -9.965035 -12.27441 -3.517827 13.59564 -6.229495 -0 41.25293 -0 -8.434105 -13.07559 17.24461 -1.772832 1.285171 2.64783 -0.06527451 8.765581 -4.840889 4.741752 24.53005 2.830038 0.4952614 -9.960972 8.202134 -0.7011807 -10.68252 8.785886 90.59566 17.70255 -16.09809 -0 0 9.671546 -18.87793 12.61237 6.144618 6.639123 -18.34109 -4.267411 -82.19005 18.44537 -0.3629725 0 0 -16.21715 5.517349 8.89878 3.395424
1356.818 103.5874 3006.412 8.688521 -10.76775 33.48464 3.111914 -7.034684 5.706598 -0 22.27191 -0 4.169952 -9.997694 -11.65501 -3.216146 9.993759 -6.018167 -0 45.8186 -0 -8.448341 -11.48394 18.03194 -1.512131 1.129796 3.379404 -0.0591055 9.420159 -4.581438 4.67039 24.28439 2.922727 0.6213957 -10.53288 8.098131 -0.0502671 -11.56152 9.238816 89.53843 18.06082 -15.33399 -0 0 10.59752 -19.56097 13.50398 7.03943 6.226456 -18.05822 -4.111668 -83.50921 18.79453 2.143202 0 0 -15.44981 4.620945 8.760046 4.867893
1360.3 104.2249 3012.508 8.33913 -10.65263 32.67411 3.475954 -3.407651 6.330384 -0 21.30967 -0 4.629595 -9.878168 -10.67798 -2.876133 5.146161 -5.655617 -0 49.06104 -0 -8.589083 -10.15336 18.6398 -1.289097 1.083092 4.31864 -0.1455081 10.13028 -4.270594 4.48289 23.89177 3.225922 0.8833486 -11.2167 7.981356 0.6917592 -12.78895 9.740309 88.07107 18.57891 -14.30492 -0 0 12.23178 -20.74411 14.50682 8.282238 5.902987 -17.87147 -4.00579 -85.05636 19.24114 5.280101 0 0 -14.96933 3.384087 8.390298 6.903414
1363.732 104.7995 3018.353 7.846634 -10.26221 31.74309 3.644426 0.1045801 6.74367 -0 19.90766 -0 5.168963 -9.805002 -9.421065 -2.421861 -0.5641717 -5.080213 -0 50.10003 -0 -8.734269 -9.204479 19.03936 -1.132655 1.128771 5.345092 -0.2940591 10.7553 -3.962127 4.184943 23.39338 3.67986 1.232287 -11.97415 7.839112 1.398159 -14.26327 10.23888 86.31487 19.2511 -13.01512 -0 0 14.43789 -22.23241 15.38306 9.71792 5.663355 -17.76072 -3.939193 -86.66017 19.75839 8.745939 0 0 -14.79887 1.974267 7.810379 9.241111
